<?xml version="1.0" standalone="no"?>
<!DOCTYPE svg PUBLIC "-//W3C//DTD SVG 20010904//EN"
 "http://www.w3.org/TR/2001/REC-SVG-20010904/DTD/svg10.dtd">
<svg version="1.0" xmlns="http://www.w3.org/2000/svg"
 width="500.000000pt" height="500.000000pt" viewBox="0 0 500.000000 500.000000"
 preserveAspectRatio="xMidYMid meet">
<metadata>
Created by potrace 1.14, written by Peter Selinger 2001-2017
</metadata>
<g transform="translate(0.000000,500.000000) scale(0.100000,-0.100000)"
fill="#000000" stroke="none">
<path d="M1080 4985 c0 -8 -3 -14 -8 -12 -4 1 -25 -18 -47 -42 -22 -25 -60
-65 -85 -90 -25 -25 -52 -59 -60 -76 -13 -27 -58 -80 -131 -154 -14 -14 -34
-41 -44 -58 -11 -18 -22 -33 -26 -33 -4 0 -10 -17 -14 -37 -4 -21 -14 -54 -23
-73 -8 -19 -16 -37 -16 -40 -1 -3 -7 -15 -14 -28 -7 -12 -10 -27 -7 -32 4 -6
-1 -13 -9 -16 -9 -3 -16 -17 -16 -30 0 -13 -4 -24 -10 -24 -5 0 -9 -3 -9 -7 3
-20 -2 -26 -11 -13 -8 13 -10 12 -11 -5 -1 -11 -1 -23 0 -27 0 -5 -4 -8 -10
-8 -5 0 -8 -4 -5 -9 4 -5 2 -11 -3 -13 -5 -1 -11 -12 -13 -23 -1 -11 -7 -23
-12 -27 -5 -3 -10 -14 -11 -25 -2 -18 -25 -74 -35 -83 -8 -8 -13 -31 -14 -65
-1 -16 -5 -33 -11 -37 -6 -5 -5 -8 3 -8 9 0 11 -7 7 -20 -5 -14 -2 -20 10 -20
9 0 13 -4 10 -10 -3 -5 -1 -10 5 -10 6 0 8 -5 4 -12 -4 -6 -3 -8 4 -5 14 9 38
-1 40 -16 0 -7 3 -24 5 -40 3 -21 1 -25 -8 -17 -9 8 -12 4 -9 -16 1 -14 0 -23
-3 -20 -4 3 -13 0 -21 -7 -13 -10 -14 -9 -7 2 6 10 4 12 -4 7 -7 -5 -10 -14
-7 -22 3 -8 0 -11 -10 -7 -7 3 -14 0 -14 -6 0 -6 -7 -8 -17 -4 -12 5 -14 3 -7
-8 14 -24 13 -37 -5 -34 -9 2 -20 4 -24 4 -5 1 -5 7 -1 14 4 6 3 9 -1 4 -10
-9 -15 -46 -6 -45 19 2 24 -4 11 -13 -12 -8 -10 -9 7 -4 15 4 21 2 19 -9 -1
-9 -6 -19 -11 -23 -4 -4 -5 -3 -2 3 3 6 0 11 -7 11 -7 0 -13 -6 -13 -13 0 -7
4 -11 8 -8 4 2 10 0 14 -6 3 -5 2 -10 -3 -10 -9 0 -8 -17 1 -65 3 -11 2 -24
-2 -30 -3 -5 -6 -12 -7 -15 0 -3 -3 -12 -6 -20 -13 -33 -16 -60 -7 -66 5 -3 7
-10 4 -15 -10 -15 5 -49 21 -49 8 0 14 -7 14 -15 0 -8 0 -17 0 -20 0 -9 40
-45 51 -45 5 0 7 -5 3 -12 -5 -8 0 -9 15 -5 15 4 24 -1 32 -15 8 -15 8 -19 0
-14 -6 4 -11 2 -11 -4 0 -6 -6 -8 -12 -4 -8 4 -10 3 -5 -2 5 -5 13 -10 18 -10
5 -1 14 -2 19 -3 6 0 10 -8 10 -17 0 -9 5 -12 12 -8 10 6 10 5 1 -8 -7 -8 -9
-19 -5 -23 4 -5 2 -5 -5 -1 -6 3 -14 2 -18 -4 -9 -15 38 -12 54 3 9 8 12 8 7
0 -3 -6 0 -13 6 -16 10 -3 9 -8 -2 -22 -8 -10 -13 -21 -11 -24 11 -18 20 -51
12 -47 -10 6 6 -85 21 -123 6 -14 12 -28 13 -31 1 -3 12 -27 24 -55 13 -27 24
-54 25 -60 1 -5 10 -27 19 -49 9 -21 17 -44 17 -51 0 -6 3 -15 7 -19 5 -4 8
-11 9 -14 0 -4 3 -14 6 -22 24 -69 50 -148 52 -160 1 -8 8 -28 14 -45 26 -64
35 -94 36 -132 1 -13 4 -23 7 -23 3 0 5 -10 4 -22 -4 -47 39 -108 97 -137 34
-16 54 -56 63 -125 2 -17 5 -32 6 -33 4 -6 22 -113 25 -153 1 -14 3 -25 4 -25
1 0 3 -16 5 -35 1 -19 3 -35 4 -35 3 0 6 -13 15 -60 3 -16 8 -40 10 -53 7 -32
44 -135 69 -191 12 -25 22 -48 22 -51 2 -10 88 -175 94 -180 3 -3 17 -27 31
-54 14 -26 31 -50 37 -53 7 -3 10 -9 7 -14 -3 -5 2 -12 10 -15 9 -3 16 -11 16
-18 0 -6 8 -19 18 -28 45 -43 89 -116 95 -160 6 -40 -2 -47 -57 -55 -45 -7
-114 -42 -136 -71 -11 -13 -20 -21 -20 -17 0 4 -7 1 -17 -6 -9 -8 -18 -13 -20
-11 -1 1 -6 1 -10 1 -22 -3 -31 -5 -63 -13 -19 -4 -55 -15 -80 -23 -25 -8 -53
-16 -64 -19 -10 -2 -24 -8 -32 -15 -8 -6 -14 -8 -14 -5 0 4 -12 1 -27 -8 -16
-8 -47 -23 -70 -35 -23 -11 -52 -26 -65 -33 -39 -21 -242 -152 -255 -165 -7
-6 -29 -21 -50 -34 -21 -13 -43 -28 -49 -34 -27 -24 -55 -45 -59 -45 -3 0 -35
-23 -71 -50 -36 -28 -81 -57 -100 -65 -19 -8 -34 -16 -34 -19 0 -4 1087 -6
2415 -6 l2415 0 0 168 c0 152 -2 168 -17 170 -21 2 -57 10 -60 12 -2 2 -6 3
-10 4 -5 1 -25 10 -47 19 -21 9 -42 17 -47 17 -4 0 -34 25 -66 56 -54 51 -151
109 -198 118 -11 2 -38 7 -60 11 -21 3 -51 15 -65 25 -14 10 -46 27 -71 36
-24 10 -65 31 -92 47 -26 16 -53 30 -61 31 -8 1 -20 6 -27 12 -19 12 -78 41
-111 53 -15 6 -46 23 -70 38 -24 15 -54 29 -67 31 -52 7 -109 51 -116 89 -2
10 -4 18 -5 18 -5 0 -10 49 -11 105 0 36 6 85 15 110 8 25 27 79 41 120 14 41
28 84 31 95 12 57 24 137 28 195 3 36 8 83 11 105 8 56 24 145 31 175 5 27 15
69 18 85 10 46 19 55 74 70 118 34 171 84 186 176 26 154 70 343 126 534 16
55 32 115 35 134 3 19 8 38 11 43 6 9 6 82 1 123 -2 11 -13 43 -27 70 -32 68
-32 72 3 70 17 -1 43 4 57 12 14 7 31 13 38 13 6 0 12 5 12 11 0 5 4 8 9 5 5
-3 12 1 15 10 5 12 1 14 -17 9 -12 -4 -26 -8 -32 -9 -5 0 -13 -5 -17 -11 -5
-6 -8 -5 -8 3 0 8 -5 10 -12 6 -7 -4 -3 4 10 18 12 13 19 28 15 32 -4 4 1 4
11 0 13 -5 17 -4 13 3 -4 6 0 13 8 16 11 5 12 1 5 -19 -14 -36 -12 -43 4 -15
l13 24 15 -22 c9 -13 19 -18 22 -13 3 6 -1 13 -10 16 -10 4 -13 13 -9 27 5 14
3 19 -3 15 -6 -3 -9 1 -8 11 2 9 9 19 17 21 12 3 12 2 0 -6 -8 -6 -9 -12 -3
-16 6 -3 17 0 25 9 13 13 16 13 21 -1 4 -10 2 -13 -6 -8 -7 4 -8 3 -4 -5 10
-16 29 -3 22 16 -3 8 -2 11 3 8 14 -8 30 22 33 63 1 6 5 12 10 12 5 0 6 5 3
10 -3 6 -1 10 4 10 6 0 10 3 9 8 -1 8 10 58 19 82 4 8 5 21 4 28 -1 8 3 19 9
27 8 9 8 15 0 20 -5 3 -10 11 -10 16 0 6 4 8 8 5 5 -3 9 1 9 9 0 8 -3 12 -7
10 -4 -2 -7 41 -7 96 0 55 3 101 6 103 9 6 1 241 -9 241 -1 0 -3 10 -6 23 -4
25 -61 129 -75 137 -4 3 -6 12 -3 20 4 8 10 12 15 9 5 -3 9 0 9 5 0 6 -4 11
-10 11 -5 0 -10 5 -10 11 0 5 4 7 10 4 6 -4 10 5 10 19 0 14 -4 26 -9 26 -5 0
-12 7 -15 16 -4 10 -2 13 7 8 6 -4 4 2 -6 13 -19 22 -14 34 11 27 10 -3 6 1
-8 9 -14 9 -25 24 -25 34 0 10 -5 17 -12 16 -7 -2 -10 3 -7 11 3 8 -4 19 -16
26 -11 6 -18 15 -15 20 12 20 -48 111 -122 186 -88 88 -118 114 -133 114 -6 0
-10 5 -10 10 0 6 -6 10 -13 10 -7 0 -20 9 -29 19 -12 15 -13 22 -5 32 7 8 8
10 3 6 -5 -3 -15 1 -23 11 -13 15 -13 15 -3 -5 6 -13 7 -23 3 -23 -16 0 -88
43 -104 61 -9 11 -21 19 -27 19 -6 0 -23 11 -38 25 l-27 25 -1454 0 c-1279 0
-1453 -2 -1453 -15z m3541 -893 c6 -21 16 -42 21 -49 6 -7 5 -14 -3 -19 -7 -4
-9 -3 -5 4 3 6 2 13 -3 16 -5 3 -12 18 -16 33 -3 16 -14 36 -23 46 -15 16 -15
17 1 12 9 -4 21 -23 28 -43z m-56 -42 c-2 -11 1 -20 7 -20 6 0 6 -6 -2 -15
-11 -13 -10 -14 3 -10 8 4 18 1 23 -6 4 -8 3 -10 -4 -5 -8 5 -10 2 -6 -8 3 -9
9 -14 13 -12 4 3 7 -3 7 -12 0 -9 3 -29 7 -44 5 -18 3 -28 -4 -28 -6 0 -13 9
-16 20 -3 11 -9 20 -14 20 -5 0 -9 11 -9 24 0 13 -5 26 -10 28 -6 2 -12 13
-13 26 0 12 -6 22 -12 22 -5 0 -3 5 5 10 8 5 11 10 5 10 -5 0 -3 5 5 10 20 13
19 13 15 -10z m88 -45 c-3 -9 -8 -14 -10 -11 -3 3 -2 9 2 15 9 16 15 13 8 -4z
m-4202 -138 c-10 -9 -11 -8 -5 6 3 10 9 15 12 12 3 -3 0 -11 -7 -18z m9 -253
c0 -2 -7 -4 -15 -4 -8 0 -15 4 -15 10 0 5 7 7 15 4 8 -4 15 -8 15 -10z m-55
-12 c-3 -3 -11 0 -18 7 -9 10 -8 11 6 5 10 -3 15 -9 12 -12z m4067 -36 c3 -27
0 -34 -13 -33 -13 1 -15 6 -8 31 5 17 9 32 9 33 0 2 2 3 4 3 2 0 6 -15 8 -34z
m-52 -32 c0 -8 -4 -14 -10 -14 -5 0 -6 7 -3 17 5 12 3 14 -7 8 -9 -5 -11 -4
-6 4 9 14 26 5 26 -15z m114 -43 c3 -5 -2 -15 -12 -22 -15 -12 -16 -12 -5 2 7
9 10 19 6 22 -3 4 -4 7 0 7 3 0 8 -4 11 -9z m76 -11 c0 -5 -5 -10 -11 -10 -5
0 -7 5 -4 10 3 6 8 10 11 10 2 0 4 -4 4 -10z m-166 -25 c-4 -8 -7 -15 -9 -15
-2 0 -5 7 -9 15 -3 9 0 15 9 15 9 0 12 -6 9 -15z m152 2 c10 4 12 0 8 -11 -5
-14 -24 -23 -24 -12 0 2 -2 10 -3 18 -2 7 -2 10 0 6 2 -4 11 -4 19 -1z m-11
-60 c-7 -16 -35 -13 -35 5 0 5 6 6 13 2 9 -6 9 -5 0 8 -16 19 -4 33 14 15 8
-7 11 -21 8 -30z m-121 -4 c-7 -47 -12 -55 -26 -47 -7 5 -8 2 -3 -6 5 -8 1
-18 -10 -26 -10 -8 -16 -16 -13 -20 9 -9 -24 -44 -42 -44 -12 1 -11 3 3 11 10
6 14 15 10 22 -11 18 -13 38 -2 31 5 -3 9 2 9 11 0 9 5 13 10 10 6 -3 10 1 10
9 0 9 5 16 11 16 6 0 9 5 7 11 -3 10 30 58 39 59 2 0 0 -17 -3 -37z m57 30
c-10 -4 -10 -7 -1 -13 9 -5 8 -11 -3 -21 -7 -8 -12 -20 -9 -27 5 -17 -15 -15
-22 3 -3 8 -1 15 5 15 6 0 7 5 3 12 -5 7 -3 8 6 3 10 -6 12 -4 7 7 -6 18 0 28
17 27 6 0 5 -3 -3 -6z m-4109 -45 c6 -18 -6 -74 -15 -70 -4 1 -9 11 -12 23 -3
11 -1 18 4 15 4 -3 6 6 3 19 -4 25 12 36 20 13z m4158 -20 c0 -5 -4 -7 -9 -4
-5 4 -11 0 -14 -6 -3 -7 -4 -3 -4 8 1 21 27 23 27 2z m-87 -31 c-4 -7 -8 -15
-8 -19 0 -3 -3 -9 -7 -13 -5 -6 -4 19 2 35 1 3 2 9 1 13 -1 5 3 6 9 2 6 -3 7
-12 3 -18z"/>
<path d="M4549 3287 c6 -8 7 -18 3 -22 -4 -5 -1 -5 6 -1 10 6 10 11 1 22 -6 8
-14 14 -16 14 -3 0 0 -6 6 -13z"/>
<path d="M4450 3235 c-11 -13 -10 -14 4 -9 9 3 16 10 16 15 0 13 -6 11 -20 -6z"/>
<path d="M465 3149 c-4 -6 -5 -12 -2 -15 2 -3 7 2 10 11 7 17 1 20 -8 4z"/>
<path d="M504 3090 c0 -13 4 -16 10 -10 7 7 7 13 0 20 -6 6 -10 3 -10 -10z"/>
</g>
</svg>
