<?xml version="1.0" standalone="no"?>
<!DOCTYPE svg PUBLIC "-//W3C//DTD SVG 20010904//EN"
 "http://www.w3.org/TR/2001/REC-SVG-20010904/DTD/svg10.dtd">
<svg version="1.0" xmlns="http://www.w3.org/2000/svg"
 width="720.000000pt" height="720.000000pt" viewBox="0 0 720.000000 720.000000"
 preserveAspectRatio="xMidYMid meet">
<metadata>
Created by potrace 1.14, written by Peter Selinger 2001-2017
</metadata>
<g transform="translate(0.000000,720.000000) scale(0.100000,-0.100000)"
fill="#000000" stroke="none">
<path d="M3265 6963 c-55 -12 -129 -31 -165 -42 -36 -10 -89 -25 -118 -31 -28
-7 -55 -16 -58 -21 -3 -5 -12 -9 -20 -9 -8 0 -44 -13 -79 -30 -35 -16 -68 -30
-73 -30 -4 0 -41 -32 -82 -71 -41 -40 -76 -67 -78 -60 -3 9 -7 9 -18 0 -20
-16 -17 -30 4 -22 15 6 15 4 -2 -16 -17 -19 -21 -20 -28 -6 -12 21 -23 19 -54
-12 -23 -23 -25 -28 -11 -38 13 -9 10 -15 -21 -35 -20 -14 -57 -44 -82 -67
-49 -46 -60 -51 -60 -28 0 9 -17 -3 -40 -27 -22 -24 -40 -47 -40 -51 0 -5 -4
-5 -10 -2 -5 3 -10 1 -10 -5 0 -6 -7 -18 -15 -26 -8 -9 -15 -12 -15 -7 0 5 5
14 11 20 17 17 1 37 -17 22 -7 -6 -12 -15 -9 -19 2 -4 -2 -16 -11 -26 -14 -18
-15 -18 -8 6 6 22 5 23 -10 8 -9 -10 -13 -24 -10 -35 4 -13 3 -14 -3 -5 -14
18 -21 8 -98 -143 -106 -207 -129 -273 -151 -431 -3 -27 -8 -51 -9 -54 -10
-16 -29 -198 -46 -437 -9 -132 -10 -181 -1 -211 14 -45 47 -88 57 -72 3 5 3
10 -2 10 -4 0 -3 4 2 8 6 4 16 18 23 32 l12 25 -5 -25 c-4 -24 -4 -23 7 3 12
26 28 37 28 17 0 -5 5 -10 11 -10 8 0 7 5 -1 15 -16 19 -5 34 12 17 7 -7 17
-12 23 -12 5 0 1 7 -9 15 -16 12 -17 17 -6 30 7 8 17 15 22 15 6 0 5 -7 -2
-15 -8 -9 -9 -15 -2 -15 13 0 26 20 27 40 0 27 160 122 310 185 178 75 419
141 675 186 188 33 611 45 760 23 19 -3 72 -7 117 -7 45 -1 85 -6 90 -11 5 -5
-7 -6 -27 -2 -21 3 -30 2 -22 -3 8 -4 13 -11 13 -15 -2 -17 1 -17 34 3 25 14
35 16 35 7 0 -13 88 -15 109 -1 6 3 17 3 24 -2 8 -5 2 -10 -18 -15 -19 -5 -11
-5 22 -2 30 2 54 0 58 -6 3 -5 14 -10 23 -10 15 0 15 2 2 10 -25 16 47 11 125
-10 39 -10 64 -18 57 -19 -7 0 -11 -5 -8 -9 3 -5 -18 -5 -47 0 -186 29 -665
33 -907 8 -100 -10 -294 -40 -390 -61 -152 -32 -570 -151 -595 -169 -5 -4 -25
-11 -43 -15 -18 -3 -45 -13 -60 -20 -15 -7 -45 -21 -67 -30 -22 -9 -81 -37
-130 -61 -50 -24 -94 -44 -98 -44 -5 0 -27 -13 -50 -28 -23 -16 -57 -34 -74
-41 -18 -8 -33 -17 -33 -20 0 -4 -18 -15 -40 -25 -23 -10 -49 -27 -60 -38 -10
-11 -23 -17 -29 -13 -7 3 -10 2 -9 -3 2 -5 -17 -25 -42 -45 -73 -60 -80 -69
-80 -105 0 -34 0 -34 38 -28 47 9 92 26 92 36 0 12 70 53 96 56 15 2 24 -4 27
-18 7 -26 -2 -48 -19 -48 -8 0 -14 -4 -14 -9 0 -5 -12 -11 -27 -13 -14 -2 -28
-9 -31 -16 -3 -11 0 -12 18 -2 17 9 29 9 52 -1 30 -12 30 -13 8 -21 -19 -7
-20 -11 -10 -23 10 -12 10 -22 2 -39 -13 -29 -11 -48 7 -70 13 -15 15 -15 32
0 18 16 19 16 19 -4 0 -13 -6 -22 -15 -22 -8 0 -15 -4 -15 -9 0 -5 -8 -12 -17
-14 -14 -4 -13 -5 4 -6 20 -1 22 -6 19 -33 -2 -23 4 -42 20 -64 13 -17 24 -36
24 -43 0 -6 10 -28 23 -49 26 -43 103 -275 113 -342 7 -49 63 -162 76 -153 5
2 6 12 4 21 -3 10 -8 68 -11 130 l-6 112 25 9 c13 6 27 19 31 30 6 19 51 41
86 41 12 0 19 7 19 19 0 10 7 24 15 31 8 7 15 17 15 22 0 5 -7 2 -16 -6 -8 -9
-18 -16 -22 -16 -12 1 -42 27 -42 37 0 5 -12 25 -26 44 -31 41 -54 94 -54 123
0 11 12 52 27 90 l26 70 23 -29 c13 -16 31 -45 41 -65 10 -19 21 -37 25 -40 3
-3 10 -18 13 -33 4 -15 11 -30 16 -33 5 -3 9 -14 9 -24 0 -11 9 -24 21 -31
l21 -11 -21 -22 c-35 -37 -24 -38 47 -2 72 36 163 66 196 65 12 0 4 -6 -19
-13 -75 -23 -125 -50 -125 -65 0 -11 10 -16 30 -17 16 -1 27 3 24 7 -3 5 9 6
26 3 19 -4 30 -2 30 5 0 6 12 11 26 11 14 0 23 -4 19 -10 -3 -5 -15 -10 -26
-10 -15 0 -19 -5 -15 -18 5 -14 -4 -26 -31 -45 -21 -15 -34 -27 -30 -27 5 0
-1 -12 -12 -26 -12 -15 -21 -40 -21 -57 0 -22 -3 -27 -12 -21 -17 12 -57 12
-59 0 -2 -15 80 -93 116 -110 19 -10 35 -21 35 -26 0 -6 7 -10 15 -10 17 0 18
4 6 28 -11 19 -23 51 -27 70 -5 26 159 38 179 12 7 -8 24 -21 40 -27 15 -7 27
-19 27 -26 0 -18 32 -47 51 -47 8 0 22 -9 32 -20 11 -13 29 -20 52 -20 24 0
39 -6 47 -20 7 -11 21 -20 30 -20 10 0 22 -9 28 -19 7 -14 26 -21 67 -27 32
-3 67 -11 77 -17 14 -7 22 -6 30 5 6 8 21 18 33 22 17 5 23 2 29 -16 3 -12 13
-28 20 -36 17 -16 18 -44 3 -59 -13 -13 -2 -36 12 -27 5 3 18 24 28 47 94 210
75 441 -45 547 -83 72 -200 101 -419 102 -155 2 -133 15 27 17 176 2 305 -32
394 -105 l55 -45 26 21 c33 25 168 66 249 75 64 7 182 -16 196 -38 6 -9 8 -9
8 0 0 19 30 3 30 -16 0 -12 5 -10 20 9 26 33 25 19 -2 -33 -31 -61 -37 -203
-13 -283 19 -60 78 -178 102 -202 7 -7 13 -17 13 -21 0 -13 103 -111 117 -111
7 0 27 -9 45 -20 18 -11 45 -20 61 -20 15 0 27 -4 27 -10 0 -5 10 -10 22 -10
21 0 21 0 2 15 -18 14 -17 14 12 15 35 0 83 38 64 50 -7 5 -10 15 -7 24 4 10
-1 21 -13 28 -11 7 -20 18 -20 24 0 6 -18 17 -40 24 -26 8 -40 19 -40 30 0 14
-7 16 -45 10 -25 -4 -42 -3 -39 2 4 5 -3 12 -13 14 -14 4 -19 15 -20 39 -1 32
1 34 26 29 18 -4 33 0 44 10 19 19 57 21 57 3 0 -8 7 -28 15 -45 14 -26 20
-30 48 -25 17 3 35 10 39 16 6 9 8 9 8 0 0 -7 8 -13 17 -13 15 0 14 2 -3 15
-10 8 -29 15 -41 15 -22 0 -53 33 -53 57 0 6 9 10 20 8 14 -3 20 2 20 14 0 22
69 38 81 19 5 -8 12 -6 24 5 9 10 22 17 28 18 7 0 21 2 32 5 11 2 30 -2 43 -8
19 -10 25 -9 36 8 44 62 47 64 96 47 34 -11 46 -20 47 -35 3 -35 18 -43 58
-31 29 9 35 9 35 -3 0 -28 26 -14 58 33 13 18 22 46 22 68 0 24 6 43 18 51 16
13 16 15 -2 29 -11 8 -25 15 -32 15 -18 0 -34 55 -34 115 0 38 -4 55 -15 59
-8 3 -15 11 -15 17 0 21 50 59 78 59 22 0 24 2 12 11 -13 9 -13 10 0 7 10 -3
14 -16 11 -46 -1 -27 2 -42 9 -42 6 0 10 8 8 18 -4 24 16 29 20 5 2 -10 13
-27 23 -39 37 -40 46 -231 18 -339 -17 -61 -52 -159 -59 -165 -4 -3 -14 -19
-23 -35 -19 -37 -87 -111 -100 -107 -4 1 -6 -2 -3 -7 10 -16 -31 -23 -56 -10
-23 12 -23 12 -4 -9 18 -21 18 -21 -4 -19 -13 1 -25 9 -28 19 -5 20 -17 23
-28 7 -3 -6 -15 -8 -26 -6 -11 3 -29 -4 -45 -19 l-26 -24 34 -1 34 -1 -30 -10
c-16 -6 -32 -14 -35 -19 -3 -4 -19 -4 -35 -1 l-30 6 30 7 30 7 -29 1 c-28 1
-29 2 -10 16 10 8 24 15 30 15 7 0 26 13 43 29 38 36 41 68 7 77 -35 8 -49 -2
-36 -27 9 -15 7 -19 -5 -19 -8 0 -15 7 -15 15 0 8 -8 15 -18 15 -10 0 -25 11
-32 25 -7 14 -16 25 -20 25 -10 0 -9 -100 1 -106 13 -8 11 -44 -2 -44 -8 0 -8
-4 0 -14 9 -11 8 -15 -5 -20 -33 -12 -50 -6 -61 25 -7 19 -16 28 -23 24 -6 -4
-9 -13 -6 -21 3 -8 -1 -14 -10 -14 -8 0 -13 -4 -10 -9 4 -5 0 -11 -6 -14 -7
-3 22 -4 65 -2 88 3 94 -3 15 -15 l-53 -8 68 -1 c40 -1 67 3 67 9 0 6 10 10
23 9 42 -4 88 1 84 9 -3 4 5 8 18 8 29 2 123 45 155 70 83 66 134 149 171 279
20 67 23 104 24 221 0 109 3 140 13 137 6 -3 12 0 12 6 0 6 -9 11 -19 11 -12
0 -23 11 -30 31 -16 47 -15 49 33 49 25 0 56 4 69 9 22 9 24 7 19 -11 -3 -14
-1 -19 6 -14 8 5 8 -1 1 -24 -8 -21 -20 -33 -42 -39 -30 -8 -30 -9 -7 -10 24
-1 27 -7 42 -73 37 -161 40 -190 28 -278 -6 -47 -13 -110 -16 -140 -3 -30 -10
-68 -16 -83 -6 -15 -8 -30 -5 -33 2 -3 -2 -26 -9 -51 -8 -25 -14 -66 -14 -90
0 -24 -7 -55 -16 -69 -14 -20 -15 -30 -5 -50 14 -32 14 -54 0 -34 -8 11 -9 4
-6 -30 3 -25 3 -39 0 -32 -3 6 -9 12 -14 12 -13 0 -11 -48 2 -52 7 -2 5 -9 -5
-17 -11 -9 -16 -10 -16 -2 0 24 -20 9 -29 -21 -9 -31 -10 -32 -16 -10 -6 18
-10 20 -21 11 -8 -6 -14 -20 -14 -30 0 -11 -7 -19 -15 -19 -8 0 -15 -9 -15
-20 0 -11 -4 -20 -10 -20 -5 0 -10 -7 -10 -16 0 -9 -7 -22 -16 -28 -16 -12
-26 -76 -12 -76 4 0 8 -5 8 -11 0 -7 -10 -9 -25 -5 -31 8 -34 -15 -5 -44 20
-20 20 -20 0 -20 -11 0 -20 -7 -20 -15 0 -9 -6 -12 -15 -9 -8 4 -15 2 -15 -3
0 -4 -11 -21 -25 -36 -25 -27 -25 -29 5 -31 9 -1 15 -11 15 -26 0 -18 -5 -24
-17 -22 -10 2 -18 -2 -18 -8 0 -5 -11 -10 -25 -10 -22 0 -25 -4 -26 -37 -1
-21 -1 -41 0 -45 0 -4 -9 -10 -20 -13 -16 -5 -18 -9 -8 -21 13 -16 9 -24 -18
-29 -10 -2 -18 -4 -18 -6 0 -1 -10 -3 -23 -4 -21 -2 -22 -1 -7 21 8 13 15 32
15 43 0 11 5 23 11 27 6 3 9 15 6 25 -3 11 -1 19 4 19 5 0 9 -7 9 -16 0 -8 4
-12 10 -9 6 4 4 17 -5 35 -19 36 -19 40 0 40 8 0 16 3 16 8 3 13 7 126 8 207
1 53 4 75 10 66 8 -12 11 -9 16 11 4 15 4 36 0 48 -5 17 -10 19 -21 9 -11 -9
-14 -8 -14 4 0 9 -10 25 -21 36 -15 13 -20 27 -16 41 5 20 2 22 -32 18 -28 -2
-37 0 -34 9 3 8 -3 13 -14 13 -10 0 -24 9 -31 20 -7 11 -18 20 -26 20 -17 0
-29 42 -14 51 6 4 -9 11 -33 16 l-44 9 40 8 c27 5 41 4 43 -4 3 -7 10 -6 23 6
11 10 28 15 43 12 15 -3 23 -1 19 5 -9 15 60 -3 73 -19 21 -27 64 -9 64 27 0
18 40 49 63 49 8 0 20 6 26 14 10 12 8 13 -8 9 -12 -3 -21 -2 -21 1 0 11 67
36 95 36 36 0 31 24 -11 43 -34 17 -37 17 -75 -5 -37 -21 -50 -38 -29 -38 6 0
10 -5 10 -11 0 -8 -4 -8 -14 0 -11 9 -16 9 -21 0 -4 -6 -1 -15 6 -20 8 -5 10
-9 4 -9 -5 0 -17 5 -25 10 -13 8 -12 11 5 25 20 17 20 17 0 10 -11 -3 -33 -9
-50 -12 l-30 -7 30 -12 30 -12 -38 0 c-23 0 -35 4 -30 10 4 7 -4 9 -23 4 -67
-15 -215 -18 -276 -7 -86 17 -155 40 -169 57 -6 8 -17 14 -23 14 -18 0 -120
100 -148 146 -53 83 -79 138 -94 193 -16 60 -20 182 -9 247 6 32 5 37 -6 27
-21 -21 -28 -15 -31 25 -3 33 -7 38 -43 50 -55 19 -233 10 -300 -15 -48 -18
-50 -21 -50 -56 0 -21 -6 -41 -13 -46 -11 -6 -10 -23 4 -92 29 -146 2 -313
-76 -456 -21 -40 -24 -53 -14 -53 12 0 13 -4 3 -22 -7 -13 -20 -29 -31 -36
-10 -7 -18 -19 -18 -26 0 -17 -22 -26 -48 -19 -11 2 -23 0 -26 -6 -4 -7 1 -11
14 -11 17 0 19 -3 10 -19 -5 -11 -10 -30 -10 -43 0 -13 -9 -29 -21 -36 -16
-10 -19 -19 -14 -45 4 -22 3 -28 -3 -18 -12 17 -32 6 -32 -20 0 -14 -7 -19
-25 -19 -22 0 -25 -4 -24 -32 0 -18 3 -27 6 -20 2 6 10 12 16 12 6 0 19 7 29
17 17 15 18 15 19 -13 l1 -29 13 35 c10 27 14 31 20 18 10 -24 2 -63 -13 -61
-6 2 -12 -6 -12 -17 0 -17 7 -20 43 -22 23 0 49 0 57 1 8 2 38 4 66 5 44 3 56
-1 84 -25 l32 -28 -21 -22 c-12 -13 -21 -29 -21 -36 0 -8 -7 -25 -16 -38 -9
-13 -13 -29 -9 -34 3 -7 0 -8 -9 -5 -9 3 -16 10 -16 15 0 19 -21 8 -30 -16 -7
-17 -17 -25 -34 -25 -14 0 -31 -6 -39 -14 -12 -12 -16 -12 -30 5 -23 26 -35
24 -29 -7 3 -18 1 -25 -9 -24 -27 4 -40 0 -34 -10 3 -5 -1 -10 -9 -10 -8 0
-17 4 -20 9 -8 12 -46 2 -68 -17 -13 -11 -15 -19 -8 -27 6 -7 7 -20 4 -30 -6
-15 -3 -17 20 -13 22 5 26 2 21 -13 -4 -11 -2 -19 5 -19 6 0 8 -5 4 -11 -5 -8
-9 -8 -14 1 -6 10 -13 9 -31 -3 -27 -19 -36 -57 -14 -57 8 0 16 -9 16 -20 1
-11 2 -26 3 -32 1 -13 40 -20 112 -18 61 1 85 7 98 26 10 14 24 15 77 10 159
-15 176 -19 237 -64 18 -13 30 -28 27 -33 -8 -12 -45 -12 -45 1 0 20 -19 9
-22 -12 -2 -16 -13 -26 -35 -33 -18 -5 -33 -14 -33 -21 0 -18 26 -35 44 -28
18 7 23 -20 6 -31 -6 -3 -10 -15 -10 -26 0 -17 7 -19 48 -18 26 1 52 0 57 -1
12 -4 62 -7 133 -9 40 -1 54 -5 59 -18 3 -10 13 -26 21 -35 13 -16 13 -18 -1
-18 -8 0 -18 6 -21 13 -4 6 -4 -3 -1 -21 6 -40 -16 -40 -25 -1 -5 22 -8 20
-28 -23 -13 -25 -29 -52 -37 -58 -9 -7 -12 -23 -8 -45 5 -30 2 -36 -20 -44
-14 -5 -28 -15 -32 -21 -6 -9 -10 -9 -16 1 -8 11 -12 11 -24 -4 -7 -11 -11
-25 -9 -32 7 -17 -50 -37 -65 -22 -7 7 -16 6 -29 -6 -10 -9 -21 -14 -24 -11
-4 3 -9 -4 -13 -15 -9 -30 -27 -26 -19 4 4 15 2 25 -5 25 -6 0 -11 -7 -11 -15
0 -21 -20 -19 -20 3 -1 15 -2 15 -13 2 -13 -16 -57 -25 -57 -11 0 4 -17 8 -37
7 -33 -1 -38 2 -41 22 -2 15 -9 22 -17 18 -7 -2 -23 6 -36 20 -12 13 -28 24
-35 24 -6 0 -17 7 -24 15 -7 9 -33 25 -57 36 -34 15 -42 23 -34 33 8 10 4 11
-19 8 -23 -3 -30 0 -30 12 0 9 -8 20 -17 23 -10 4 -32 17 -49 30 -17 13 -34
23 -37 23 -4 0 -16 8 -26 17 -39 35 -50 43 -66 43 -8 0 -15 4 -15 8 0 4 -13
15 -28 24 -27 16 -28 16 -29 -3 -1 -10 7 -24 18 -29 10 -6 19 -16 19 -23 0
-15 43 -54 121 -109 33 -22 59 -46 59 -52 0 -13 64 -66 79 -66 6 0 11 -4 11
-9 0 -5 18 -26 40 -47 22 -21 43 -46 46 -56 3 -10 10 -16 15 -13 5 4 9 -3 9
-14 0 -13 7 -21 17 -21 30 0 83 -24 83 -37 0 -8 -11 -18 -25 -23 -14 -5 -25
-12 -25 -16 0 -3 17 -21 38 -40 20 -18 32 -34 25 -34 -6 0 -15 5 -18 10 -3 6
-19 10 -35 10 -19 0 -33 7 -40 20 -6 11 -19 20 -28 20 -19 0 -62 34 -62 49 0
4 -25 25 -55 46 -46 31 -90 73 -212 201 -7 7 -13 15 -13 18 0 3 -21 36 -46 71
-25 36 -62 100 -81 142 -30 62 -34 79 -25 94 16 24 15 34 -1 21 -8 -7 -18 -6
-31 4 -11 8 -14 14 -8 14 7 0 12 5 12 10 0 6 -8 10 -17 10 -15 0 -16 2 -3 10
12 8 11 10 -7 10 -13 0 -23 5 -23 10 0 6 -4 10 -9 10 -16 0 -1 -139 19 -183
24 -52 60 -164 60 -188 0 -9 23 -57 52 -106 28 -48 71 -124 95 -168 24 -44 60
-100 79 -125 43 -56 129 -161 170 -209 99 -113 145 -164 215 -239 44 -46 91
-101 106 -121 17 -24 52 -51 97 -74 39 -21 88 -53 110 -72 21 -19 67 -56 102
-82 35 -26 64 -50 64 -55 0 -4 5 -8 12 -8 6 0 8 3 5 7 -4 3 1 15 10 25 12 14
14 21 5 30 -9 9 -6 14 10 22 12 6 23 18 26 26 3 10 -1 8 -10 -4 -8 -10 -21
-16 -29 -13 -10 4 -9 6 4 6 20 1 23 31 5 50 -10 11 -10 14 0 18 14 6 16 33 2
33 -5 0 -10 13 -10 29 0 29 -14 41 -51 41 -14 0 -19 7 -19 26 0 17 -6 28 -20
31 -11 3 -17 9 -14 14 3 5 0 9 -5 9 -6 0 -11 11 -11 25 0 14 -4 25 -10 25 -5
0 -10 13 -10 29 0 16 -5 31 -12 33 -7 3 -8 9 -3 18 6 10 11 6 22 -14 14 -28
41 -34 61 -14 9 9 12 9 12 0 0 -21 20 -13 29 12 5 13 19 26 30 29 12 3 19 1
15 -4 -9 -16 17 -10 52 12 19 11 34 27 34 35 0 8 10 14 23 14 30 1 57 23 57
47 0 20 46 48 80 48 8 0 13 5 11 10 -2 6 -6 16 -8 23 -3 7 0 19 7 27 7 8 10
15 6 15 -3 0 6 14 21 30 15 17 33 28 40 26 15 -6 28 12 28 39 0 11 5 20 10 20
6 0 25 16 43 35 19 19 41 35 50 35 10 0 17 8 18 20 3 51 3 52 34 47 25 -4 30
-1 30 17 0 25 26 39 42 23 8 -8 8 -15 -2 -27 -10 -13 -9 -15 8 -15 14 0 22 9
27 33 l7 32 15 -42 c8 -24 19 -43 25 -43 6 0 6 -6 -2 -15 -7 -8 -19 -15 -26
-15 -8 0 -14 -5 -14 -11 0 -6 -7 -17 -15 -25 -13 -14 -13 -17 0 -30 18 -19 19
-40 3 -99 -7 -25 -18 -45 -26 -45 -7 0 -10 5 -7 10 3 5 -1 10 -9 10 -12 0 -16
-10 -16 -40 0 -35 3 -40 23 -40 l22 -1 -23 -19 c-13 -11 -25 -28 -26 -37 -2
-12 -12 -18 -30 -18 -16 1 -26 -5 -26 -13 0 -9 -8 -5 -20 11 -16 20 -28 25
-55 23 -19 -2 -41 -9 -49 -15 -8 -7 -24 -10 -36 -6 -11 3 -20 2 -20 -4 0 -6
-11 -6 -30 -1 -26 7 -30 6 -30 -10 0 -11 7 -23 16 -28 11 -6 15 -17 11 -31 -4
-15 -1 -21 12 -21 10 0 22 -9 27 -21 8 -17 20 -21 69 -24 72 -4 98 -8 105 -17
10 -13 59 5 65 23 7 23 25 25 25 4 0 -8 9 -15 20 -15 11 0 20 -3 20 -7 4 -75
11 -118 20 -121 5 -2 10 -12 10 -21 0 -10 13 -29 29 -43 16 -15 31 -32 33 -40
3 -7 8 -11 10 -8 3 3 53 102 111 220 58 118 119 230 135 247 28 32 42 34 42 7
0 -7 11 -29 24 -48 l24 -36 4 31 c3 20 0 33 -9 36 -17 7 -17 27 1 78 17 49 30
117 50 262 8 62 22 126 31 143 9 18 17 50 17 72 0 23 8 59 18 80 14 31 15 44
6 63 -6 13 -14 21 -19 18 -5 -3 -2 9 7 25 21 41 20 53 -9 108 -25 46 -34 73
-15 44 26 -41 -3 69 -35 131 -22 41 -18 74 11 124 16 29 23 52 19 65 -5 14 -2
20 9 20 19 0 20 5 6 31 -7 13 -7 19 0 19 5 0 10 -4 10 -10 0 -22 20 -8 26 18
3 15 17 48 31 75 13 26 25 64 26 85 1 20 8 43 15 50 6 7 12 23 13 35 0 12 3
36 5 52 4 29 8 91 18 285 6 108 21 247 31 272 4 9 13 19 21 22 8 3 14 15 14
26 0 11 5 20 10 20 6 0 8 11 4 25 -4 15 0 39 9 58 14 28 14 39 3 70 -7 20 -15
40 -19 43 -11 11 -8 36 2 29 5 -3 11 9 13 27 2 17 9 34 17 36 8 3 11 0 7 -7
-4 -6 -2 -11 3 -11 6 0 11 15 11 34 0 23 7 39 23 50 21 16 21 16 0 6 -27 -13
-35 8 -24 65 6 32 9 36 16 21 5 -11 4 -26 -3 -37 -6 -10 -8 -20 -3 -23 5 -3
12 4 16 17 14 44 13 72 -3 86 -13 10 -14 15 -4 18 6 3 9 10 6 15 -4 7 -2 8 4
4 6 -4 9 -13 5 -21 -3 -8 -1 -15 4 -15 5 0 10 6 11 13 3 35 23 107 40 147 33
78 51 162 56 259 7 111 1 141 -25 141 -10 0 -19 7 -19 15 0 8 7 15 15 15 13 0
14 4 5 20 -6 11 -18 20 -26 20 -9 0 -22 7 -30 15 -13 13 -10 16 23 30 34 15
36 18 21 29 -21 16 -24 36 -4 36 7 0 19 7 26 15 10 12 9 15 -4 15 -13 0 -16 6
-11 23 5 17 3 16 -10 -6 -15 -26 -35 -29 -35 -5 0 6 -6 16 -14 22 -10 8 -17
55 -24 166 -6 85 -18 178 -26 205 -8 28 -22 95 -31 150 -54 338 -108 488 -271
766 -58 98 -204 249 -283 293 -9 5 -39 24 -67 43 -28 18 -66 38 -85 45 -19 6
-50 24 -70 40 -20 15 -43 28 -51 28 -7 0 -31 10 -53 21 -22 12 -59 22 -82 23
-31 1 -42 5 -40 15 3 18 -85 50 -91 33 -2 -7 -8 -12 -14 -12 -6 0 -7 7 -4 15
3 10 -1 18 -11 22 -9 4 -18 2 -21 -5 -2 -6 -10 -8 -18 -5 -7 3 -12 9 -9 13 3
4 -4 10 -15 13 -11 3 -18 1 -14 -4 7 -12 3 -12 -105 10 -52 11 -100 17 -108
14 -9 -4 -11 0 -6 13 6 16 4 17 -9 6 -11 -9 -28 -10 -68 -2 -49 9 -149 17
-300 24 -41 1 -101 -6 -165 -21z m41 -24 c-27 -4 -72 -15 -99 -24 -53 -17 -79
-13 -31 6 40 15 103 27 144 27 29 0 26 -2 -14 -9z m112 4 c-10 -2 -28 -2 -40
0 -13 2 -5 4 17 4 22 1 32 -1 23 -4z m132 -3 c0 -5 -18 -10 -40 -10 -22 0 -40
5 -40 10 0 6 18 10 40 10 22 0 40 -4 40 -10z m78 -7 c-10 -2 -26 -2 -35 0 -10
3 -2 5 17 5 19 0 27 -2 18 -5z m165 -23 c10 -10 3 -11 -33 -5 -73 12 -93 26
-32 22 29 -2 59 -10 65 -17z m-375 -18 c2 -12 -3 -29 -11 -37 -9 -8 -13 -24
-10 -35 4 -14 0 -20 -10 -20 -23 0 -29 15 -18 43 6 16 6 28 -1 35 -17 17 -1
44 24 40 15 -2 24 -11 26 -26z m-283 9 c-13 -11 -74 -31 -94 -30 -9 0 4 9 29
19 48 20 80 26 65 11z m195 -5 c0 -8 -4 -18 -10 -21 -17 -11 -11 -25 13 -26
l22 -2 -22 -4 c-14 -3 -20 -9 -16 -19 3 -9 -2 -14 -15 -14 -11 0 -23 -6 -26
-12 -3 -7 -5 -2 -5 12 2 59 -1 76 -11 60 -5 -8 -10 -10 -10 -5 0 6 -7 1 -15
-9 -15 -19 -15 -19 -15 3 0 12 3 20 8 18 4 -2 21 4 37 14 37 22 65 24 65 5z
m203 5 c5 -1 7 -6 5 -13 -5 -15 -61 -18 -70 -4 -14 20 -8 26 25 22 17 -3 36
-5 40 -5z m429 -9 c10 -10 1 -11 -37 -5 -28 4 -60 7 -72 8 -13 0 -23 4 -23 9
0 12 118 2 132 -12z m-339 -23 c-8 -8 -16 -8 -30 0 -16 9 -14 10 12 11 21 0
26 -3 18 -11z m57 1 c0 -5 -4 -10 -10 -10 -5 0 -10 5 -10 10 0 6 5 10 10 10 6
0 10 -4 10 -10z m-685 -15 c-35 -16 -64 -20 -49 -6 10 10 39 18 64 19 8 0 2
-6 -15 -13z m215 1 c0 -41 -31 -63 -44 -31 -3 8 -13 15 -21 15 -9 0 -13 -4
-10 -10 3 -6 -5 -10 -19 -10 -40 0 -40 18 1 29 30 9 40 8 55 -6 22 -19 36 -10
18 12 -10 12 -10 15 4 15 9 0 16 -6 16 -14z m295 4 c3 -5 1 -10 -4 -10 -6 0
-11 5 -11 10 0 6 2 10 4 10 3 0 8 -4 11 -10z m279 2 c9 -15 -9 -27 -46 -29
-32 -2 -38 1 -38 17 0 17 7 20 39 20 22 0 42 -4 45 -8z m65 -5 c-2 -1 -15 -11
-28 -22 l-24 -20 12 23 c6 12 19 22 28 22 9 0 14 -1 12 -3z m38 -13 c-3 -3
-12 -4 -19 -1 -8 3 -5 6 6 6 11 1 17 -2 13 -5z m-977 -14 c-8 -5 -19 -10 -25
-10 -5 0 -3 5 5 10 8 5 20 10 25 10 6 0 3 -5 -5 -10z m150 -15 c0 -10 -11 -15
-35 -15 -40 0 -45 7 -12 20 33 13 47 12 47 -5z m-200 -5 c-20 -13 -33 -13 -25
0 3 6 14 10 23 10 15 0 15 -2 2 -10z m260 -20 c0 -5 -7 -10 -15 -10 -8 0 -15
5 -15 10 0 6 7 10 15 10 8 0 15 -4 15 -10z m-188 -20 c-12 -11 -28 -17 -37
-14 -14 6 -12 9 7 19 37 21 55 18 30 -5z m378 10 c0 -5 -4 -10 -10 -10 -5 0
-10 5 -10 10 0 6 5 10 10 10 6 0 10 -4 10 -10z m-240 -10 c0 -5 -2 -10 -4 -10
-3 0 -8 5 -11 10 -3 6 -1 10 4 10 6 0 11 -4 11 -10z m316 -17 c-10 -10 -19 5
-10 18 6 11 8 11 12 0 2 -7 1 -15 -2 -18z m885 9 c-7 -2 -18 1 -23 6 -8 8 -4
9 13 5 13 -4 18 -8 10 -11z m-1417 -27 c-10 -8 -27 -15 -38 -15 -15 0 -16 3
-6 15 7 8 24 15 38 15 25 0 25 -1 6 -15z m256 -14 c0 -6 -4 -13 -10 -16 -5 -3
-10 1 -10 9 0 9 5 16 10 16 6 0 10 -4 10 -9z m-390 -56 c-7 -9 -15 -13 -17
-11 -7 7 7 26 19 26 6 0 6 -6 -2 -15z m-182 -67 c-3 -7 -13 -15 -24 -17 -16
-3 -17 -1 -5 13 16 19 34 21 29 4z m77 -32 c-10 -14 -23 -26 -29 -26 -7 0 -23
-11 -36 -25 -13 -14 -26 -23 -29 -20 -6 6 59 65 72 65 4 0 7 6 7 14 0 13 20
27 28 20 2 -1 -4 -14 -13 -28z m645 -7 c0 -5 -4 -8 -9 -4 -6 3 -14 -3 -20 -12
-9 -16 -10 -16 -11 -1 0 15 12 25 33 27 4 1 7 -4 7 -10z m-650 -39 c0 -5 -5
-10 -11 -10 -5 0 -7 5 -4 10 3 6 8 10 11 10 2 0 4 -4 4 -10z m390 -119 c0 -5
-9 -11 -21 -14 -16 -4 -18 -3 -8 9 13 16 29 19 29 5z m-710 -16 c-7 -9 -15
-13 -17 -11 -7 7 7 26 19 26 6 0 6 -6 -2 -15z m-74 -80 c-9 -9 -16 -13 -16 -8
0 5 5 14 12 21 6 6 14 10 16 7 2 -2 -3 -11 -12 -20z m74 -15 c-32 -28 -38 -25
-10 5 13 14 26 23 28 20 3 -3 -5 -14 -18 -25z m-119 -36 c-19 -25 -21 -25 -21
-6 0 12 8 25 17 31 26 14 28 5 4 -25z m1289 -234 c0 -5 -5 -10 -11 -10 -5 0
-7 5 -4 10 3 6 8 10 11 10 2 0 4 -4 4 -10z m-1410 -15 c-7 -8 -18 -15 -24 -15
-6 0 -2 7 8 15 25 19 32 19 16 0z m-69 -212 c-12 -20 -14 -14 -5 12 4 9 9 14
11 11 3 -2 0 -13 -6 -23z m2482 -390 c-7 -2 -19 -2 -25 0 -7 3 -2 5 12 5 14 0
19 -2 13 -5z m85 -22 c3 -8 -1 -12 -9 -9 -7 2 -15 10 -17 17 -3 8 1 12 9 9 7
-2 15 -10 17 -17z m92 -21 c0 -5 -2 -10 -4 -10 -3 0 -8 5 -11 10 -3 6 -1 10 4
10 6 0 11 -4 11 -10z m75 -15 c17 -7 23 -14 15 -14 -8 0 -28 6 -45 14 -16 7
-23 14 -15 14 8 0 29 -6 45 -14z m648 -574 c3 -14 1 -18 -9 -14 -15 6 -18 16
-7 26 9 10 10 9 16 -12z m-3442 -165 c-8 -10 -9 -16 -1 -19 6 -3 5 -4 -2 -3
-20 4 -22 36 -3 36 14 0 15 -3 6 -14z m2739 -156 c15 -5 -2 -6 -41 -3 -89 7
-275 -13 -395 -42 -54 -14 -99 -23 -101 -21 -7 6 144 45 217 56 142 20 276 24
320 10z m139 -27 c28 -9 51 -20 51 -25 0 -5 7 -3 15 6 13 13 18 13 44 0 31
-15 69 -64 51 -64 -6 0 -26 11 -44 25 -18 14 -35 22 -39 19 -6 -6 -122 30
-147 46 -25 16 10 13 69 -7z m-482 -29 c-3 -3 -12 -4 -19 -1 -8 3 -5 6 6 6 11
1 17 -2 13 -5z m-47 -14 c0 -5 -4 -10 -10 -10 -5 0 -10 5 -10 10 0 6 5 10 10
10 6 0 10 -4 10 -10z m1027 -52 c-3 -8 -6 -5 -6 6 -1 11 2 17 5 13 3 -3 4 -12
1 -19z m-2604 -35 c-7 -2 -19 -2 -25 0 -7 3 -2 5 12 5 14 0 19 -2 13 -5z m337
-2 c33 -9 32 -9 -20 -10 -38 -1 -50 -4 -40 -11 8 -5 11 -12 8 -15 -4 -4 -17 0
-30 9 -26 18 -42 21 -32 5 4 -8 0 -8 -15 0 -17 9 -20 9 -15 -3 4 -11 -2 -12
-27 -7 -44 9 -48 29 -7 33 71 7 145 7 178 -1z m-821 -68 c12 -16 33 -41 46
-56 26 -28 26 -47 -1 -47 -8 0 -14 9 -14 20 0 15 -7 20 -27 20 -45 0 -57 13
-49 54 8 43 18 45 45 9z m1484 -95 c32 -71 33 -164 1 -151 -10 4 -14 -4 -14
-31 0 -27 -3 -34 -15 -30 -27 11 -57 72 -57 119 -1 24 -4 42 -8 40 -11 -7 -6
69 5 77 6 4 24 8 41 8 26 0 34 -6 47 -32z m-1515 -29 c24 -2 24 -2 5 -6 -18
-3 -23 -11 -24 -36 l-1 -32 -13 35 c-7 19 -14 44 -14 55 0 18 0 19 10 3 5 -10
22 -19 37 -19z m2620 -107 c2 -7 -7 -12 -22 -12 -27 0 -35 15 -13 23 17 7 30
3 35 -11z m-1078 -76 c0 -7 -7 -19 -15 -26 -8 -7 -15 -21 -15 -31 0 -11 -4
-19 -9 -19 -13 0 -8 55 8 74 16 20 31 21 31 2z m250 -22 c0 -8 -4 -12 -10 -9
-5 3 -10 10 -10 16 0 5 5 9 10 9 6 0 10 -7 10 -16z m-589 -55 c-5 -13 -10 -19
-10 -12 -1 15 10 45 15 40 3 -2 0 -15 -5 -28z m-326 1 c4 -6 -6 -10 -22 -9
-25 0 -26 1 -8 9 11 5 21 9 22 9 1 1 5 -3 8 -9z m680 -20 c-5 -8 -11 -8 -21 1
-12 10 -12 14 -2 20 16 10 33 -5 23 -21z m-55 -10 c0 -5 -4 -10 -10 -10 -5 0
-10 5 -10 10 0 6 5 10 10 10 6 0 10 -4 10 -10z m46 -19 c-3 -5 1 -11 9 -15 25
-9 46 -73 34 -103 -5 -15 -7 -33 -5 -40 3 -8 2 -11 -3 -8 -6 3 -15 -3 -21 -12
-9 -15 -10 -14 -5 10 4 20 1 27 -9 27 -20 0 -31 19 -17 33 7 7 12 6 17 -6 3
-9 12 -17 20 -17 23 0 16 28 -11 46 -14 9 -25 25 -25 35 0 24 -26 25 -34 2 -6
-15 -8 -15 -16 -3 -15 24 -12 48 8 53 31 8 63 7 58 -2z m461 -77 c-3 -3 -12
-4 -19 -1 -8 3 -5 6 6 6 11 1 17 -2 13 -5z m-367 -87 c0 -24 -2 -26 -19 -15
-16 10 -17 16 -9 41 12 34 28 20 28 -26z m855 -78 c-10 -15 -25 -10 -19 6 4 8
10 12 15 9 5 -3 7 -10 4 -15z m-1055 -98 c47 -17 95 -30 108 -31 12 0 32 -12
45 -26 12 -14 32 -30 45 -35 12 -5 22 -15 22 -24 0 -8 4 -15 9 -15 5 0 11 -10
13 -22 2 -16 9 -22 21 -20 15 3 17 -1 12 -17 -10 -33 20 -37 71 -10 43 23 46
23 58 6 15 -20 42 -14 66 15 9 11 20 15 28 10 19 -12 -3 -66 -23 -58 -8 3 -15
1 -15 -4 0 -6 -15 -10 -32 -10 -69 0 -106 -12 -112 -34 -5 -16 -8 -18 -15 -8
-6 10 -10 7 -15 -13 -5 -21 -11 -25 -27 -20 -16 5 -20 3 -19 -12 1 -10 -1 -28
-5 -41 -6 -19 -10 -20 -23 -10 -13 11 -15 10 -9 -4 4 -12 2 -18 -8 -18 -8 0
-15 5 -15 11 0 6 -17 9 -42 7 -34 -2 -43 -7 -42 -20 2 -25 -6 -23 -111 27
-102 49 -161 63 -192 47 -15 -9 -25 -6 -44 11 -45 39 -59 69 -59 122 0 61 26
113 86 173 24 24 44 48 44 53 0 18 87 3 180 -30z m360 -265 c0 -3 -4 -8 -10
-11 -5 -3 -10 -1 -10 4 0 6 5 11 10 11 6 0 10 -2 10 -4z m538 -51 c-3 -3 -9 2
-12 12 -6 14 -5 15 5 6 7 -7 10 -15 7 -18z m-1038 -213 c0 -15 -2 -15 -10 -2
-13 20 -13 33 0 25 6 -3 10 -14 10 -23z m1320 -77 c0 -8 -4 -15 -10 -15 -5 0
-7 7 -4 15 4 8 8 15 10 15 2 0 4 -7 4 -15z m-1355 -25 c9 0 12 6 8 18 -3 9 4
5 16 -10 24 -30 57 -39 47 -13 -4 12 -2 13 14 2 11 -6 20 -17 20 -24 0 -7 5
-13 10 -13 6 0 10 6 10 14 0 8 14 18 32 21 26 6 35 3 50 -15 24 -30 24 -54 -2
-47 -25 6 -168 -25 -195 -43 -17 -12 -108 -40 -128 -40 -26 0 -97 31 -97 43 0
5 -15 6 -32 2 -31 -7 -32 -6 -13 9 11 8 15 16 8 16 -9 0 -9 8 -2 30 12 33 19
36 37 18 9 -9 13 -7 18 5 3 9 12 17 20 17 17 0 18 17 2 23 -7 3 -2 6 13 6 14
1 31 -5 37 -11 10 -10 15 -10 22 1 6 11 12 12 23 3 10 -9 18 -8 33 2 16 12 20
12 27 0 4 -8 14 -14 22 -14z m1313 -149 c-16 -6 -62 45 -53 59 6 9 16 3 36
-21 15 -19 23 -36 17 -38z m-181 -7 c3 -8 1 -20 -4 -25 -7 -7 -12 -2 -15 15
-6 28 9 36 19 10z m-100 0 c-3 -3 -12 -4 -19 -1 -8 3 -5 6 6 6 11 1 17 -2 13
-5z m-116 -87 c-8 -8 -11 -8 -11 1 0 7 -7 12 -15 12 -10 0 -15 10 -15 26 l0
27 26 -28 c18 -20 22 -31 15 -38z m39 47 c0 -8 -5 -12 -10 -9 -6 4 -8 11 -5
16 9 14 15 11 15 -7z m80 1 c0 -8 -6 -15 -14 -15 -20 0 -29 17 -14 23 22 9 28
7 28 -8z m-154 -132 c18 -24 17 -34 -1 -27 -8 4 -12 10 -9 15 3 5 0 9 -5 9 -6
0 -11 5 -11 10 0 15 11 12 26 -7z m628 1 c9 -24 2 -26 -12 -4 -7 11 -8 20 -3
20 5 0 12 -7 15 -16z m-644 -68 c0 -11 -19 -15 -25 -6 -3 5 1 10 9 10 9 0 16
-2 16 -4z m0 -65 c0 -5 -9 -11 -21 -14 -16 -4 -18 -3 -8 9 13 16 29 19 29 5z
m-42 -41 c11 -18 10 -20 -13 -20 -24 0 -34 18 -18 33 10 11 17 8 31 -13z
m-283 -66 c-9 -9 -18 -14 -21 -11 -9 9 6 27 22 27 13 0 13 -2 -1 -16z m-55
-44 c-20 -13 -43 -13 -35 0 3 6 16 10 28 10 18 0 19 -2 7 -10z m550 -450 c0
-5 -4 -10 -10 -10 -5 0 -10 5 -10 10 0 6 5 10 10 10 6 0 10 -4 10 -10z m-813
-286 c-3 -3 -12 -4 -19 -1 -8 3 -5 6 6 6 11 1 17 -2 13 -5z m515 -19 c8 3 21
-1 28 -10 11 -13 11 -19 -4 -33 -16 -16 -18 -16 -37 7 -10 13 -19 31 -19 40 0
12 2 13 8 3 5 -7 15 -10 24 -7z m-487 -34 c3 -5 1 -12 -5 -16 -5 -3 -10 1 -10
9 0 18 6 21 15 7z"/>
<path d="M2380 6521 c-30 -27 -52 -52 -48 -56 7 -7 128 84 128 97 0 20 -29 5
-80 -41z"/>
<path d="M3664 5473 c11 -11 48 -14 41 -3 -3 5 -16 10 -27 10 -12 0 -18 -3
-14 -7z"/>
<path d="M3848 5463 c7 -3 16 -2 19 1 4 3 -2 6 -13 5 -11 0 -14 -3 -6 -6z"/>
<path d="M4300 5420 c14 -4 34 -8 45 -8 16 0 15 2 -5 8 -14 4 -34 8 -45 8 -16
0 -15 -2 5 -8z"/>
<path d="M5346 5110 c-16 -17 -26 -33 -23 -37 6 -5 14 2 51 45 29 33 5 26 -28
-8z"/>
<path d="M2060 5095 c7 -9 15 -13 17 -11 7 7 -7 26 -19 26 -6 0 -6 -6 2 -15z"/>
<path d="M5421 5093 c-1 -6 -4 -20 -7 -30 -5 -17 -5 -17 6 0 6 10 9 23 6 30
-3 9 -5 9 -5 0z"/>
<path d="M4865 4331 c-3 -5 -1 -12 5 -16 5 -3 10 1 10 9 0 18 -6 21 -15 7z"/>
<path d="M5010 4310 l-25 -7 27 -8 c28 -7 48 -1 48 16 0 10 -14 10 -50 -1z"/>
<path d="M4820 4295 c0 -17 2 -18 24 -9 23 9 20 24 -4 24 -11 0 -20 -7 -20
-15z"/>
<path d="M5272 4065 c0 -16 2 -22 5 -12 2 9 2 23 0 30 -3 6 -5 -1 -5 -18z"/>
<path d="M4480 3900 c0 -5 -7 -10 -15 -10 -8 0 -15 -4 -15 -10 0 -16 19 -12
42 10 19 17 19 20 5 20 -9 0 -17 -4 -17 -10z"/>
<path d="M4553 3886 c-10 -11 -9 -15 4 -20 19 -8 38 8 29 23 -9 14 -18 13 -33
-3z"/>
<path d="M4614 3886 c-11 -29 1 -51 29 -54 23 -3 27 0 27 22 0 35 -45 61 -56
32z"/>
<path d="M4337 3864 c-10 -11 3 -24 23 -24 13 0 17 5 14 15 -6 15 -26 20 -37
9z"/>
<path d="M4690 3855 c0 -8 9 -19 20 -25 18 -10 19 -9 8 15 -12 27 -28 33 -28
10z"/>
<path d="M4670 3810 c0 -5 5 -10 10 -10 6 0 10 5 10 10 0 6 -4 10 -10 10 -5 0
-10 -4 -10 -10z"/>
<path d="M4193 3793 c9 -2 25 -2 35 0 9 3 1 5 -18 5 -19 0 -27 -2 -17 -5z"/>
<path d="M4510 3779 c0 -5 5 -7 10 -4 6 3 10 8 10 11 0 2 -4 4 -10 4 -5 0 -10
-5 -10 -11z"/>
<path d="M2165 3730 c3 -5 8 -10 11 -10 2 0 4 5 4 10 0 6 -5 10 -11 10 -5 0
-7 -4 -4 -10z"/>
<path d="M2785 3720 c3 -5 14 -10 23 -10 15 0 15 2 2 10 -20 13 -33 13 -25 0z"/>
<path d="M2825 3690 c-3 -6 1 -13 10 -16 19 -8 30 0 20 15 -8 14 -22 14 -30 1z"/>
<path d="M4861 3608 c-33 -29 -33 -31 -16 -44 28 -21 34 -17 30 16 -2 17 -1
29 3 26 5 -3 13 4 20 15 18 28 2 23 -37 -13z m9 -28 c0 -5 -4 -10 -10 -10 -5
0 -10 5 -10 10 0 6 5 10 10 10 6 0 10 -4 10 -10z"/>
<path d="M4757 3609 c7 -7 15 -10 18 -7 3 3 -2 9 -12 12 -14 6 -15 5 -6 -5z"/>
<path d="M2196 3558 c-4 -9 -3 -25 3 -37 6 -11 11 -29 11 -40 0 -12 5 -21 10
-21 6 0 10 -13 10 -30 0 -17 9 -39 20 -50 12 -12 19 -28 18 -37 -2 -10 5 -19
15 -21 26 -5 21 23 -13 61 -20 24 -26 37 -19 44 8 8 7 13 0 17 -6 4 -11 22
-11 41 0 19 -6 38 -14 42 -8 4 -16 17 -18 28 -4 18 -6 18 -12 3z"/>
<path d="M4323 3533 c9 -2 23 -2 30 0 6 3 -1 5 -18 5 -16 0 -22 -2 -12 -5z"/>
<path d="M4925 3520 c4 -6 11 -8 16 -5 14 9 11 15 -7 15 -8 0 -12 -5 -9 -10z"/>
<path d="M4876 3485 c-3 -8 -15 -15 -26 -15 -21 0 -27 -15 -9 -25 19 -12 59 4
59 25 0 24 -16 35 -24 15z"/>
<path d="M4791 3434 c0 -11 3 -14 6 -6 3 7 2 16 -1 19 -3 4 -6 -2 -5 -13z"/>
<path d="M3175 3416 c-33 -14 -232 -53 -305 -60 -25 -2 0 -2 55 0 104 4 276
42 283 63 4 13 4 13 -33 -3z"/>
<path d="M4880 3420 c0 -5 5 -10 10 -10 6 0 10 5 10 10 0 6 -4 10 -10 10 -5 0
-10 -4 -10 -10z"/>
<path d="M4956 3391 c-4 -7 -5 -15 -2 -18 9 -9 19 4 14 18 -4 11 -6 11 -12 0z"/>
<path d="M4800 3330 c0 -11 7 -20 15 -20 8 0 15 6 15 14 0 8 -7 16 -15 20 -10
4 -15 -1 -15 -14z"/>
<path d="M5008 3313 c7 -3 16 -2 19 1 4 3 -2 6 -13 5 -11 0 -14 -3 -6 -6z"/>
<path d="M2270 3303 c2 -20 27 -100 37 -118 6 -11 15 -17 19 -13 4 4 1 14 -6
23 -8 10 -9 15 -1 15 6 0 11 8 11 17 0 9 -3 13 -7 10 -9 -10 -32 25 -33 51 0
12 -4 22 -10 22 -5 0 -10 -3 -10 -7z"/>
<path d="M4956 3274 c-3 -9 -6 -23 -6 -31 0 -13 3 -13 15 -3 17 14 20 36 6 44
-5 3 -12 -1 -15 -10z"/>
<path d="M4800 3254 c0 -8 5 -12 10 -9 6 4 8 11 5 16 -9 14 -15 11 -15 -7z"/>
<path d="M4800 3200 c0 -19 11 -26 23 -14 8 8 -3 34 -14 34 -5 0 -9 -9 -9 -20z"/>
<path d="M4712 2780 c0 -14 2 -19 5 -12 2 6 2 18 0 25 -3 6 -5 1 -5 -13z"/>
<path d="M2760 2380 c0 -5 5 -10 10 -10 6 0 10 5 10 10 0 6 -4 10 -10 10 -5 0
-10 -4 -10 -10z"/>
<path d="M5203 2178 c13 -24 45 -79 70 -123 61 -107 84 -145 134 -223 32 -48
40 -68 32 -78 -12 -15 22 -29 62 -25 35 3 62 -35 78 -109 23 -102 26 -108 103
-194 68 -75 178 -244 178 -273 0 -12 -8 -24 -18 -27 -30 -10 -43 -45 -47 -124
-2 -42 -6 -94 -10 -115 -7 -34 -10 -38 -29 -32 -43 15 -79 6 -113 -27 -27 -26
-33 -39 -33 -74 0 -39 3 -44 43 -68 51 -31 104 -81 175 -164 43 -50 60 -62 83
-62 39 0 62 25 83 93 l18 56 -26 57 c-14 31 -26 61 -26 68 1 26 39 53 99 69
l64 18 25 -28 c47 -53 158 -208 200 -278 53 -90 149 -293 198 -417 l37 -98
116 0 116 0 -2 72 c-7 343 -76 628 -235 972 -28 61 -54 116 -58 121 -5 6 -22
37 -40 70 -92 174 -303 454 -410 544 -99 82 -226 145 -348 171 -56 13 -129 45
-157 70 -11 10 -56 35 -100 56 -44 21 -99 51 -122 67 -37 25 -145 77 -159 77
-3 0 5 -19 19 -42z m462 -228 c3 -5 2 -10 -4 -10 -5 0 -13 5 -16 10 -3 6 -2
10 4 10 5 0 13 -4 16 -10z m155 -130 c0 -5 -4 -10 -10 -10 -5 0 -10 5 -10 10
0 6 5 10 10 10 6 0 10 -4 10 -10z m153 -55 c25 -24 33 -35 23 -35 -2 0 -18 14
-36 30 -18 17 -28 30 -23 30 4 0 21 -11 36 -25z m-82 -21 c12 -14 11 -16 -5
-13 -11 2 -21 10 -24 17 -5 17 13 15 29 -4z m169 -76 c42 -58 37 -66 -10 -17
-22 23 -40 45 -40 50 0 21 22 6 50 -33z m-103 -23 c9 -25 -2 -27 -22 -5 -17
18 -17 20 -1 20 9 0 19 -7 23 -15z m171 -70 c17 -37 15 -41 -8 -12 -22 27 -25
37 -12 37 5 0 14 -11 20 -25z m-118 -35 c0 -5 -2 -10 -4 -10 -3 0 -8 5 -11 10
-3 6 -1 10 4 10 6 0 11 -4 11 -10z m171 -31 c10 -19 9 -20 -10 -9 -12 6 -21
18 -21 26 0 19 16 10 31 -17z m72 -103 c4 -10 1 -13 -9 -9 -7 3 -14 9 -14 14
0 14 17 10 23 -5z m38 -58 c11 -21 11 -22 -4 -9 -10 7 -17 17 -17 22 0 15 9
10 21 -13z m-222 -15 c10 -10 31 -40 46 -67 26 -44 26 -47 7 -35 -12 8 -22 19
-22 25 0 6 -14 26 -31 45 -30 34 -76 47 -91 25 -9 -14 -22 -1 -13 13 10 18 84
13 104 -6z m-179 -217 c0 -17 -14 -29 -23 -20 -8 8 3 34 14 34 5 0 9 -6 9 -14z
m1 -58 c11 -21 11 -22 -4 -9 -10 7 -17 17 -17 22 0 15 9 10 21 -13z m238 -184
c-15 -18 -22 -13 -13 10 3 9 10 13 16 10 5 -3 4 -12 -3 -20z"/>
<path d="M3613 2033 c-18 -7 -16 -23 2 -23 8 0 15 7 15 15 0 8 -1 15 -2 14 -2
0 -9 -3 -15 -6z"/>
<path d="M5017 1960 c-3 -11 -3 -20 -1 -20 2 0 8 9 14 20 6 11 7 20 2 20 -6 0
-12 -9 -15 -20z"/>
<path d="M4970 1859 c0 -5 5 -7 10 -4 6 3 10 8 10 11 0 2 -4 4 -10 4 -5 0 -10
-5 -10 -11z"/>
<path d="M3174 1848 c-7 -12 -4 -15 20 -20 10 -1 21 2 23 8 5 14 -35 26 -43
12z"/>
<path d="M1827 1709 c-20 -11 -61 -24 -90 -29 -72 -14 -154 -56 -309 -160
-184 -123 -325 -257 -202 -191 33 18 38 18 82 3 l46 -15 31 39 c86 111 110
127 265 178 136 45 221 59 251 41 5 -4 9 1 9 9 0 8 4 18 10 21 5 3 7 0 4 -8
-3 -8 -1 -18 5 -22 6 -3 11 -1 11 4 0 6 5 11 10 11 6 0 8 -11 4 -26 -6 -22 -4
-25 7 -18 20 12 39 14 39 3 0 -5 -6 -9 -14 -9 -8 0 -18 -5 -22 -12 -5 -8 0 -9
14 -6 12 4 22 2 22 -3 0 -5 -4 -9 -10 -9 -5 0 -10 -5 -10 -10 0 -6 11 -8 25
-4 15 4 25 2 25 -5 0 -11 -9 -14 -42 -14 -10 0 -18 -4 -18 -8 0 -5 -5 -9 -10
-9 -6 0 -8 12 -4 28 l6 27 -14 -25 c-13 -23 -12 -27 9 -47 13 -13 27 -23 32
-23 4 0 15 -16 25 -36 14 -30 14 -36 2 -31 -8 3 -17 3 -19 -1 -2 -4 -2 -2 -1
5 4 17 -23 38 -28 21 -3 -9 -6 -9 -12 0 -4 7 -2 12 3 12 6 0 11 6 11 14 0 17
-97 60 -168 75 -75 16 -202 14 -251 -4 -70 -24 -97 -50 -126 -120 -32 -74 -33
-69 42 -182 23 -35 47 -82 53 -104 10 -37 13 -40 28 -27 9 8 35 22 57 30 40
16 41 16 75 -12 19 -16 38 -26 43 -23 5 3 8 -1 6 -8 -3 -29 2 -37 37 -54 20
-9 40 -28 46 -43 23 -60 42 -92 55 -92 7 0 13 5 13 10 0 6 -4 10 -10 10 -5 0
-10 7 -10 16 0 8 5 12 10 9 16 -10 12 11 -5 25 -13 10 -15 9 -15 -9 0 -12 -4
-19 -10 -16 -13 8 -13 65 -1 65 5 0 12 -6 14 -12 4 -9 6 -7 6 3 1 11 12 16 35
17 19 1 38 2 42 3 5 1 19 1 31 0 20 -1 22 -6 21 -70 -1 -69 -1 -69 -24 -59
-13 6 -25 18 -28 27 -3 9 -4 6 -3 -7 1 -12 5 -23 10 -22 10 0 47 -38 47 -50 0
-15 -16 -12 -33 5 -13 12 -15 10 -21 -15 -3 -17 -3 -37 0 -45 4 -8 2 -15 -4
-15 -5 0 -8 -13 -6 -29 3 -23 -4 -37 -26 -60 -17 -16 -30 -24 -30 -17 0 6 9
18 20 26 20 14 29 47 10 35 -5 -3 -10 0 -11 7 -1 7 -5 2 -10 -12 l-9 -25 4 25
c3 14 7 36 11 50 5 20 5 22 -5 10 -9 -12 -11 -10 -6 12 5 21 2 28 -14 33 -14
4 -20 15 -20 36 0 16 -4 29 -9 29 -14 0 -21 -29 -10 -36 6 -3 8 -22 5 -43 -4
-20 -7 -62 -8 -93 -1 -32 -6 -58 -10 -58 -4 0 -6 -35 -4 -78 3 -42 2 -68 -1
-57 -9 36 -23 41 -23 8 0 -17 5 -33 11 -35 14 -5 22 -58 9 -58 -5 0 -15 6 -22
14 -11 11 -16 10 -30 -7 -10 -11 -18 -27 -18 -35 0 -11 5 -10 18 6 30 35 48 3
47 -86 0 -39 -1 -67 -3 -62 -2 6 -10 10 -19 10 -10 0 -12 -6 -8 -21 5 -15 4
-19 -4 -15 -6 4 -11 2 -11 -5 0 -7 -8 -21 -17 -31 -11 -12 -16 -33 -15 -57 2
-22 -3 -43 -11 -49 -11 -10 -13 -2 -10 46 4 63 7 84 18 124 6 24 11 27 34 22
l26 -6 -22 16 c-13 10 -23 28 -23 42 0 14 -4 22 -10 19 -5 -3 -10 -15 -10 -26
0 -10 -3 -19 -7 -19 -14 0 -9 163 5 167 19 7 14 30 -7 36 -16 4 -20 17 -25 83
-4 44 -13 101 -21 127 -7 27 -11 55 -8 63 3 8 0 14 -7 14 -6 0 -9 4 -6 8 5 9
-16 77 -27 88 -5 6 -1 -42 8 -89 2 -9 -1 -15 -6 -11 -5 3 -9 1 -9 -5 0 -5 5
-13 10 -16 6 -3 10 -13 10 -21 0 -8 -4 -13 -9 -10 -13 8 0 -37 13 -46 7 -4 6
-15 -3 -31 -7 -14 -10 -34 -7 -45 16 -51 7 -349 -14 -487 -15 -90 -18 -85 61
-85 38 0 68 4 65 9 -3 5 1 15 10 22 8 7 14 8 13 3 -6 -31 2 -34 100 -34 l99 0
6 38 c4 20 10 86 15 145 12 143 21 152 142 162 100 8 123 -2 143 -61 20 -59
20 -64 1 -64 -8 0 -15 -6 -15 -12 -1 -7 -12 11 -26 40 -14 28 -31 52 -37 51
-35 -2 -50 -17 -54 -55 -2 -21 -11 -70 -19 -109 -8 -38 -18 -84 -21 -101 l-5
-32 217 -1 217 -2 -32 38 c-17 21 -45 49 -62 63 -76 60 -76 60 -67 130 8 71
-2 99 -26 67 -13 -18 -14 -18 -33 1 -25 25 -30 41 -38 122 -4 36 -8 74 -9 85
-1 12 -8 19 -18 17 -8 -1 -18 2 -22 8 -3 5 1 10 9 10 18 0 18 0 20 97 1 52 -3
73 -11 73 -7 0 -13 4 -13 9 0 5 6 11 13 14 9 3 9 9 -1 27 -9 15 -10 25 -3 29
11 7 10 75 -1 87 -4 3 -1 15 5 26 9 16 9 22 0 25 -15 6 -17 33 -3 33 6 0 10
17 10 38 0 36 -11 65 -24 63 -3 -1 -6 2 -5 7 1 4 5 6 10 4 5 -1 9 3 9 9 0 6
-9 13 -20 16 -11 3 -20 12 -20 20 0 9 6 13 15 9 8 -3 15 -1 15 4 0 6 -5 10
-11 10 -5 0 -8 4 -5 9 4 5 -3 7 -14 4 -12 -3 -20 0 -20 7 0 6 9 14 20 17 30 8
24 23 -10 23 -21 0 -28 4 -24 14 3 7 -2 21 -12 30 -12 13 -14 20 -5 29 8 8 11
7 11 -6 0 -9 7 -17 15 -17 8 0 15 4 15 9 0 11 -30 25 -47 22 -8 -1 -13 9 -13
23 0 13 6 26 13 29 10 3 10 9 0 26 -17 27 -16 32 1 25 8 -3 17 -1 21 5 3 6 -1
11 -10 11 -12 0 -15 6 -10 20 4 14 2 20 -8 20 -8 0 -20 7 -27 15 -7 9 -16 12
-19 7 -10 -15 -71 -32 -71 -21 0 6 9 13 20 16 11 3 20 9 20 14 0 5 7 9 15 9 8
0 15 5 15 10 0 6 -8 10 -19 10 -10 0 -24 6 -30 14 -10 11 -8 15 6 19 17 4 17
5 -1 6 -12 1 -16 6 -12 17 6 16 -9 37 -34 47 -11 4 -10 6 5 7 18 1 18 2 -3 11
-13 5 -21 13 -17 18 3 5 0 13 -6 16 -5 4 -8 14 -5 22 3 8 1 11 -4 8 -6 -3 -14
5 -20 19 -12 32 -48 34 -103 5z m58 -59 c3 -5 1 -10 -4 -10 -6 0 -11 5 -11 10
0 6 2 10 4 10 3 0 8 -4 11 -10z m185 -220 c-6 -11 -15 -20 -20 -20 -16 0 -11
18 8 29 24 14 24 14 12 -9z m16 -47 c-10 -10 -19 5 -10 18 6 11 8 11 12 0 2
-7 1 -15 -2 -18z m-183 -12 c-5 -13 -3 -13 7 -4 10 9 16 8 28 -4 13 -13 13
-16 1 -25 -11 -8 -10 -9 5 -4 21 7 49 -11 40 -26 -4 -6 -10 -5 -15 3 -6 11
-11 11 -21 1 -9 -9 -9 -12 1 -12 8 0 11 -7 8 -19 -4 -15 1 -18 27 -16 17 1 34
-3 39 -9 5 -8 9 -8 15 1 11 17 44 -10 36 -30 -3 -9 -1 -24 5 -34 10 -17 10
-17 11 1 0 11 3 17 6 13 9 -8 -6 -48 -16 -42 -12 7 -21 -52 -14 -95 6 -34 4
-38 -20 -42 -14 -3 -26 -1 -26 5 0 5 -9 7 -19 4 -14 -3 -18 -1 -14 9 3 9 13
12 24 9 25 -8 24 12 -1 27 -11 7 -20 16 -20 21 0 4 5 5 10 2 9 -6 12 3 14 50
1 8 -3 14 -9 13 -5 -2 -10 -14 -10 -27 0 -13 -6 -26 -12 -28 -8 -3 -13 4 -13
19 0 18 -2 20 -10 8 -8 -13 -11 -13 -19 -1 -7 11 -12 9 -22 -10 -15 -27 -18
-71 -6 -80 10 -7 -2 -39 -14 -39 -5 0 -9 7 -9 15 0 8 -4 15 -10 15 -5 0 -10
-7 -10 -15 0 -18 -16 -20 -23 -2 -3 7 -6 5 -6 -5 -1 -22 -8 -23 -27 -4 -19 20
-18 26 6 26 11 0 20 5 20 10 0 6 -3 10 -7 10 -5 0 -9 11 -9 24 -1 17 2 23 12
19 8 -3 14 0 14 7 0 8 -9 11 -23 8 -21 -4 -23 -1 -20 21 l4 26 -20 -23 c-18
-20 -21 -21 -35 -6 -21 21 -12 34 24 34 22 0 29 5 32 22 2 12 13 28 26 34 20
10 21 13 7 24 -8 7 -12 17 -9 22 4 6 0 15 -7 20 -10 7 -5 8 16 4 l30 -6 -26
16 -26 17 20 31 c23 34 70 47 60 17z m207 -26 c0 -8 -4 -15 -9 -15 -13 0 -22
16 -14 24 11 11 23 6 23 -9z m-534 -48 c-21 -47 -20 -55 4 -25 14 19 26 24 45
20 27 -5 45 -22 23 -22 -8 -1 -6 -6 6 -15 24 -18 40 -19 30 -2 -5 8 -2 8 9 -2
37 -29 3 -45 -50 -24 -32 13 -33 12 -33 -11 0 -13 9 -35 20 -49 11 -14 20 -28
20 -31 0 -9 -58 -7 -62 2 -1 4 -16 14 -33 23 -19 10 -29 22 -27 33 2 11 -1 15
-7 11 -6 -3 -11 1 -11 9 0 9 -7 16 -15 16 -9 0 -14 8 -12 23 2 17 -3 22 -20
20 -15 -2 -23 3 -23 13 0 25 25 43 69 50 37 6 41 5 41 -15 0 -23 14 -28 26 -9
4 7 3 8 -4 4 -7 -4 -12 -1 -12 7 0 20 12 29 23 18 6 -6 4 -22 -7 -44z m448 -2
c4 -10 -1 -15 -14 -15 -20 0 -26 11 -13 23 10 11 20 8 27 -8z m-374 -95 c0 -5
-7 -10 -16 -10 -8 0 -12 5 -9 10 3 6 10 10 16 10 5 0 9 -4 9 -10z m-115 -50
c3 -5 2 -10 -4 -10 -5 0 -13 5 -16 10 -3 6 -2 10 4 10 5 0 13 -4 16 -10z m564
-54 c-13 -14 -31 7 -23 28 6 15 7 15 20 -1 8 -11 9 -22 3 -27z m-149 4 c0 -5
-5 -10 -11 -10 -5 0 -7 5 -4 10 3 6 8 10 11 10 2 0 4 -4 4 -10z m32 -39 c-21
-22 -21 -22 -15 12 4 21 8 25 19 17 10 -9 10 -15 -4 -29z m-32 -41 c0 -5 -4
-10 -10 -10 -5 0 -10 5 -10 10 0 6 5 10 10 10 6 0 10 -4 10 -10z m267 -22 c-3
-7 -5 -2 -5 12 0 14 2 19 5 13 2 -7 2 -19 0 -25z m-136 -78 c1 -33 2 -68 2
-77 0 -10 -3 -34 -8 -53 -8 -34 -9 -34 -16 -10 -6 22 -7 22 -8 4 -1 -11 -4
-24 -8 -28 -5 -4 -8 -12 -8 -17 0 -5 -4 -9 -9 -9 -14 0 -16 104 -3 112 9 6 9
13 -1 29 -11 16 -11 23 -2 29 8 5 7 9 -4 13 -22 9 -20 26 7 48 43 36 57 26 58
-41z m115 18 c3 -9 0 -34 -5 -55 -6 -22 -7 -41 -2 -46 6 -6 5 -18 -2 -30 -9
-15 -9 -21 1 -24 16 -6 15 -68 -2 -115 -7 -21 -12 -52 -10 -70 2 -18 -1 -36
-8 -41 -10 -7 -10 -10 0 -14 13 -5 16 -41 6 -67 -3 -9 -10 -13 -15 -10 -6 3
-7 -5 -3 -21 5 -21 4 -27 -7 -23 -10 3 -15 25 -17 67 -2 42 0 61 7 56 6 -3 11
-1 11 4 0 6 -4 11 -9 11 -6 0 -10 8 -10 18 0 9 -2 91 -4 182 -3 92 -1 173 4
182 12 23 57 20 65 -4z m-220 -188 c8 0 14 -7 14 -16 0 -26 -35 -12 -37 16 -1
14 0 19 3 13 3 -7 12 -13 20 -13z m-116 -10 c0 -5 -5 -10 -11 -10 -5 0 -7 5
-4 10 3 6 8 10 11 10 2 0 4 -4 4 -10z m212 -13 c3 -13 1 -32 -3 -43 -5 -13 -8
-7 -8 24 -1 46 4 55 11 19z m-101 -36 c22 -20 18 -44 -5 -35 -12 5 -30 54 -19
54 2 0 13 -9 24 -19z m79 -1 c0 -11 -6 -20 -14 -20 -9 0 -12 7 -9 20 3 11 9
20 14 20 5 0 9 -9 9 -20z m-62 -92 c0 -42 -12 -68 -29 -68 -5 0 -9 7 -9 15 0
8 7 15 15 15 8 0 15 7 15 15 0 8 -7 15 -15 15 -8 0 -15 4 -15 9 0 5 -3 16 -6
25 -5 12 0 16 19 16 24 0 26 -4 25 -42z m47 -8 c-3 -5 -11 -10 -16 -10 -6 0
-7 5 -4 10 3 6 11 10 16 10 6 0 7 -4 4 -10z m36 -17 c-8 -15 -10 -15 -11 -2 0
17 10 32 18 25 2 -3 -1 -13 -7 -23z m149 12 c0 -8 -2 -15 -4 -15 -2 0 -6 7
-10 15 -3 8 -1 15 4 15 6 0 10 -7 10 -15z m-170 -25 c0 -5 -7 -7 -15 -4 -8 4
-15 8 -15 10 0 2 7 4 15 4 8 0 15 -4 15 -10z m-170 -16 c0 -8 -4 -12 -10 -9
-5 3 -10 10 -10 16 0 5 5 9 10 9 6 0 10 -7 10 -16z m170 -19 c0 -8 -4 -15 -8
-15 -5 0 -9 7 -9 15 0 8 4 15 9 15 4 0 8 -7 8 -15z m-77 -46 c-17 -17 -36 -1
-20 16 7 8 16 10 22 4 5 -6 5 -13 -2 -20z m-93 11 c0 -5 -4 -10 -10 -10 -5 0
-10 5 -10 10 0 6 5 10 10 10 6 0 10 -4 10 -10z m147 -37 c-3 -10 -5 -4 -5 12
0 17 2 24 5 18 2 -7 2 -21 0 -30z m-144 -33 c-3 -12 -8 -19 -11 -16 -5 6 5 36
12 36 2 0 2 -9 -1 -20z m87 1 c0 -5 -6 -14 -14 -20 -12 -10 -13 -8 -9 8 5 21
23 30 23 12z m287 -235 c0 -8 -3 -15 -6 -14 -3 0 -9 -1 -13 -2 -13 -4 -28 -7
-39 -9 -6 0 -8 -8 -5 -17 3 -8 2 -12 -3 -9 -5 3 -12 1 -16 -5 -8 -13 -25 -13
-25 1 0 5 5 7 12 3 8 -5 9 -2 4 12 -4 10 -4 15 0 11 4 -3 20 3 35 14 16 11 29
17 29 13 0 -5 5 -3 12 4 15 15 15 15 15 -2z m-467 -36 c0 -14 -5 -18 -17 -14
-17 5 -17 4 0 -9 13 -11 15 -16 5 -19 -11 -4 -11 -8 0 -20 8 -10 9 -19 4 -22
-12 -7 -36 20 -28 33 3 5 0 11 -6 14 -9 3 -5 12 11 31 29 31 31 32 31 6z m381
-63 c-10 -9 -11 -8 -5 6 3 10 9 15 12 12 3 -3 0 -11 -7 -18z m-24 -19 c-3 -8
-6 -5 -6 6 -1 11 2 17 5 13 3 -3 4 -12 1 -19z m11 -28 c9 7 9 7 2 -2 -16 -20
-36 -17 -37 6 -2 19 -1 20 11 4 9 -12 16 -14 24 -8z"/>
<path d="M1990 1210 c13 -11 25 -20 28 -20 3 0 -3 9 -13 20 -10 11 -23 20 -28
20 -6 0 0 -9 13 -20z"/>
<path d="M2020 1116 c0 -8 5 -18 10 -21 6 -3 10 3 10 14 0 12 -4 21 -10 21 -5
0 -10 -6 -10 -14z"/>
<path d="M1575 1230 c-4 -7 0 -19 9 -28 15 -16 16 -15 13 5 -4 29 -13 38 -22
23z"/>
<path d="M2041 924 c0 -11 3 -14 6 -6 3 7 2 16 -1 19 -3 4 -6 -2 -5 -13z"/>
<path d="M2042 830 c0 -14 2 -19 5 -12 2 6 2 18 0 25 -3 6 -5 1 -5 -13z"/>
<path d="M2031 784 c0 -11 3 -14 6 -6 3 7 2 16 -1 19 -3 4 -6 -2 -5 -13z"/>
<path d="M2177 740 c3 -11 7 -20 9 -20 2 0 4 9 4 20 0 11 -4 20 -9 20 -5 0 -7
-9 -4 -20z"/>
<path d="M5307 1535 c5 -55 15 -74 36 -75 4 0 7 7 7 15 0 8 5 15 11 15 6 0 9
-7 6 -14 -4 -9 -1 -13 6 -10 15 5 14 -133 0 -147 -7 -7 -20 10 -39 45 -15 30
-32 52 -36 50 -4 -3 -17 -26 -28 -51 -21 -47 -17 -64 18 -86 6 -4 12 -13 12
-20 0 -7 11 -25 25 -41 15 -17 25 -42 25 -60 l1 -31 20 38 c16 30 25 37 49 37
17 0 30 5 30 11 0 5 -4 7 -10 4 -5 -3 -10 1 -10 9 0 10 -6 13 -15 10 -30 -12
-17 44 20 82 37 38 46 60 19 50 -13 -5 -14 -1 -9 25 5 22 4 29 -4 25 -6 -4
-11 -1 -11 8 0 8 -17 34 -37 58 -21 24 -50 60 -65 79 l-26 34 5 -60z"/>
<path d="M4320 1539 c0 -5 5 -7 10 -4 6 3 10 8 10 11 0 2 -4 4 -10 4 -5 0 -10
-5 -10 -11z"/>
<path d="M1928 1523 c7 -3 16 -2 19 1 4 3 -2 6 -13 5 -11 0 -14 -3 -6 -6z"/>
<path d="M1267 1325 c3 -8 9 -12 14 -9 5 3 9 0 9 -5 0 -6 5 -11 10 -11 19 0
10 17 -15 28 -20 9 -23 9 -18 -3z"/>
<path d="M1218 1314 c-16 -8 -28 -16 -28 -17 0 -1 12 -3 28 -3 15 -1 21 1 14
3 -10 4 -8 9 5 19 24 18 15 17 -19 -2z"/>
<path d="M2157 1223 c4 -11 8 -12 13 -3 6 9 9 9 13 1 4 -8 5 -8 3 0 -1 7 -9
13 -18 15 -11 1 -15 -3 -11 -13z"/>
<path d="M3051 978 c-27 -29 -28 -34 -14 -42 10 -5 38 -13 62 -18 25 -4 74
-22 109 -38 47 -22 79 -30 119 -30 48 0 54 2 43 15 -14 17 -7 19 20 5 10 -6
21 -6 24 -1 3 4 -14 16 -37 26 -23 10 -76 33 -117 51 -41 18 -91 37 -110 42
-19 5 -42 13 -51 17 -12 4 -27 -4 -48 -27z"/>
<path d="M1546 991 c-4 -5 -2 -12 3 -15 5 -4 12 -2 15 3 4 5 2 12 -3 15 -5 4
-12 2 -15 -3z"/>
<path d="M4055 981 c-8 -15 3 -31 21 -31 9 0 14 7 12 17 -4 20 -24 28 -33 14z"/>
<path d="M1580 910 c0 -5 5 -10 10 -10 6 0 10 5 10 10 0 6 -4 10 -10 10 -5 0
-10 -4 -10 -10z"/>
<path d="M3850 892 c0 -5 7 -13 16 -16 10 -4 14 -1 12 6 -5 15 -28 23 -28 10z"/>
<path d="M1961 874 c0 -11 3 -14 6 -6 3 7 2 16 -1 19 -3 4 -6 -2 -5 -13z"/>
<path d="M1580 870 c0 -5 5 -10 11 -10 5 0 7 5 4 10 -3 6 -8 10 -11 10 -2 0
-4 -4 -4 -10z"/>
<path d="M1585 810 c-3 -5 -1 -10 4 -10 6 0 11 5 11 10 0 6 -2 10 -4 10 -3 0
-8 -4 -11 -10z"/>
<path d="M1850 805 c0 -8 7 -15 15 -15 8 0 15 7 15 15 0 8 -7 15 -15 15 -8 0
-15 -7 -15 -15z"/>
<path d="M4143 753 c-7 -2 -13 -9 -13 -15 0 -7 5 -7 13 1 8 6 18 7 22 3 5 -4
5 -1 1 6 -4 6 -8 12 -9 11 -1 0 -8 -3 -14 -6z"/>
<path d="M4157 705 c3 -8 9 -12 14 -9 12 7 11 11 -5 17 -10 4 -13 1 -9 -8z"/>
<path d="M4389 680 c-18 -24 -24 -27 -33 -16 -12 15 -77 28 -93 18 -6 -4 -13
-19 -14 -34 -3 -21 5 -35 39 -66 23 -22 42 -48 42 -60 0 -33 19 -36 31 -5 16
40 58 193 54 193 -3 0 -14 -13 -26 -30z"/>
<path d="M4180 683 c0 -5 9 -18 21 -29 17 -16 22 -16 29 -4 6 8 10 20 10 25 0
6 -4 3 -10 -5 -7 -12 -12 -12 -29 4 -12 11 -21 15 -21 9z"/>
<path d="M1730 570 c0 -5 5 -10 11 -10 5 0 7 5 4 10 -3 6 -8 10 -11 10 -2 0
-4 -4 -4 -10z"/>
</g>
</svg>
