<?xml version="1.0" standalone="no"?>
<!DOCTYPE svg PUBLIC "-//W3C//DTD SVG 20010904//EN"
 "http://www.w3.org/TR/2001/REC-SVG-20010904/DTD/svg10.dtd">
<svg version="1.0" xmlns="http://www.w3.org/2000/svg"
 width="700.000000pt" height="700.000000pt" viewBox="0 0 700.000000 700.000000"
 preserveAspectRatio="xMidYMid meet">
<metadata>
Created by potrace 1.14, written by Peter Selinger 2001-2017
</metadata>
<g transform="trangray(0.000000,700.000000) scale(0.100000,-0.100000)"
fill="#000000" stroke="none">
<path d="M3290 6409 c-271 -18 -598 -93 -856 -194 -741 -293 -1325 -868 -1633
-1609 -258 -621 -286 -1354 -76 -2004 321 -994 1166 -1750 2185 -1957 295 -60
660 -76 935 -41 581 74 1090 295 1534 666 491 409 846 1005 976 1638 78 375
79 796 4 1167 -177 877 -751 1630 -1549 2030 -359 180 -719 277 -1125 305
-168 11 -216 11 -395 -1z m481 -1192 c361 -93 629 -312 785 -641 152 -321 146
-696 -16 -1018 -136 -270 -379 -481 -666 -579 -231 -79 -506 -79 -739 -3 -513
170 -851 685 -796 1213 57 545 456 965 997 1051 105 16 327 5 435 -23z m364
-2620 c330 -42 530 -94 730 -193 217 -107 293 -212 283 -393 -7 -121 -36 -181
-132 -277 -146 -145 -468 -337 -706 -423 -434 -155 -886 -184 -1329 -85 -345
77 -756 283 -979 489 -182 168 -200 412 -42 565 166 162 568 288 1050 329 168
15 983 5 1125 -12z"/>
</g>
</svg>
