<svg xmlns="http://www.w3.org/2000/svg" viewBox="0 0 779.5 779.5" xml:space="preserve"><path fill="#FFCB31" d="M769.1 154.1c-10.3-14-27.1-22-46.1-22H330.8l-16.5 43.8H723c3.6 0 8.3.7 10.8 4.1 2.3 3.2 2.6 8.5.7 14.6-5.3 16.9-24.4 31.8-41 31.8H123.1c-35.5 0-71.8 27.5-82.8 62.5-6.1 19.5-3.5 39.1 7.2 53.6 10.3 14 27.1 22 46.1 22l522.3.2c3.6 0 8.3.7 10.8 4.1 2.3 3.2 2.6 8.5.7 14.6-5.3 16.9-24.4 31.8-41 31.8l-415-.1c-35.4 0-71.8 27.4-82.8 62.5-6.1 19.5-3.5 39.1 7.2 53.6 10.3 14 27.1 22 46.1 22l338.3.1c3.5 0 8.3.7 10.8 4.1 2.3 3.2 2.6 8.5.7 14.6-5.3 16.9-24.4 31.8-41 31.8H16.5L0 647.4h450.9c35.5 0 71.8-27.5 82.8-62.5 6.1-19.5 3.5-39.1-7.2-53.6-10.3-14-27.1-22-46.1-22l-338.4-.1c-3.6 0-8.3-.7-10.8-4.1-2.3-3.2-2.6-8.5-.7-14.6 5.3-16.9 24.4-31.8 40.9-31.8l415 .1c35.5 0 71.8-27.5 82.8-62.5 6.1-19.5 3.5-39.1-7.2-53.6-10.3-13.9-27.1-22-46.1-22l-522.3-.2c-3.5 0-8.3-.7-10.8-4.1-2.3-3.2-2.6-8.5-.7-14.6 5.3-16.9 24.4-31.8 41-31.8h570.4c35.5 0 71.8-27.5 82.8-62.5 6.1-19.3 3.5-38.9-7.2-53.4z"/></svg>